<?xml version="1.0" encoding="UTF-8"?>
<svg width="730px" height="443px" viewBox="0 0 730 443" version="1.1" xmlns="http://www.w3.org/2000/svg" xmlns:xlink="http://www.w3.org/1999/xlink">
    <!-- Generator: Sketch 60.1 (88133) - https://sketch.com -->
    <title>403图</title>
    <desc>Created with Sketch.</desc>
    <defs>
        <linearGradient x1="50%" y1="2.62529019%" x2="50%" y2="34.5117641%" id="linearGradient-1">
            <stop stop-color="#005ABB" stop-opacity="0.04" offset="0%"></stop>
            <stop stop-color="#FFFFFF" stop-opacity="0" offset="100%"></stop>
        </linearGradient>
        <polygon id="path-2" points="0 42 132 -1.46727075e-12 265 63 463 10 578 63 730 25 730 413 0 413"></polygon>
        <linearGradient x1="92.9687753%" y1="50%" x2="8.16399998%" y2="50%" id="linearGradient-4">
            <stop stop-color="#FFFFFF" stop-opacity="0" offset="0%"></stop>
            <stop stop-color="#FFFFFF" offset="47.084221%"></stop>
            <stop stop-color="#FFFFFF" stop-opacity="0" offset="100%"></stop>
        </linearGradient>
        <polygon id="path-5" points="1.07714463 175.272199 820.956805 176.493452 959.705479 312.363126 169.765821 317.371288"></polygon>
        <filter x="-1.4%" y="-7.7%" width="102.7%" height="118.3%" filterUnits="objectBoundingBox" id="filter-6">
            <feOffset dx="0" dy="2" in="SourceAlpha" result="shadowOffsetOuter1"></feOffset>
            <feGaussianBlur stdDeviation="4" in="shadowOffsetOuter1" result="shadowBlurOuter1"></feGaussianBlur>
            <feColorMatrix values="0 0 0 0 0.933333333   0 0 0 0 0.956862745   0 0 0 0 0.97254902  0 0 0 1 0" type="matrix" in="shadowBlurOuter1"></feColorMatrix>
        </filter>
        <linearGradient x1="98.3112096%" y1="41.7560495%" x2="0%" y2="58.2439505%" id="linearGradient-7">
            <stop stop-color="#0087C6" stop-opacity="0" offset="0%"></stop>
            <stop stop-color="#006CAE" stop-opacity="0.04" offset="48.291961%"></stop>
            <stop stop-color="#004F94" stop-opacity="0" offset="100%"></stop>
        </linearGradient>
        <linearGradient x1="98.3112096%" y1="41.9033241%" x2="0%" y2="58.0966759%" id="linearGradient-8">
            <stop stop-color="#0087C6" stop-opacity="0" offset="0%"></stop>
            <stop stop-color="#006CAE" stop-opacity="0.04" offset="48.291961%"></stop>
            <stop stop-color="#004F94" stop-opacity="0" offset="100%"></stop>
        </linearGradient>
        <linearGradient x1="0%" y1="50%" x2="100%" y2="50%" id="linearGradient-9">
            <stop stop-color="#FFFFFF" stop-opacity="0" offset="0%"></stop>
            <stop stop-color="#FFFFFF" offset="100%"></stop>
        </linearGradient>
        <path d="M321,5 L321,79 L0,79 L0,5 L321,5 Z M301,13 L295,13 C293.895431,13 293,13.8954305 293,15 L293,15 L293,69 C293,70.1045695 293.895431,71 295,71 L295,71 L301,71 C302.104569,71 303,70.1045695 303,69 L303,69 L303,15 C303,13.8954305 302.104569,13 301,13 L301,13 Z M283,13 L277,13 C275.895431,13 275,13.8954305 275,15 L275,15 L275,69 C275,70.1045695 275.895431,71 277,71 L277,71 L283,71 C284.104569,71 285,70.1045695 285,69 L285,69 L285,15 C285,13.8954305 284.104569,13 283,13 L283,13 Z M265,13 L259,13 C257.895431,13 257,13.8954305 257,15 L257,15 L257,69 C257,70.1045695 257.895431,71 259,71 L259,71 L265,71 C266.104569,71 267,70.1045695 267,69 L267,69 L267,15 C267,13.8954305 266.104569,13 265,13 L265,13 Z M235,13 L229,13 C227.895431,13 227,13.8954305 227,15 L227,15 L227,69 C227,70.1045695 227.895431,71 229,71 L229,71 L235,71 C236.104569,71 237,70.1045695 237,69 L237,69 L237,15 C237,13.8954305 236.104569,13 235,13 L235,13 Z M217,13 L211,13 C209.895431,13 209,13.8954305 209,15 L209,15 L209,69 C209,70.1045695 209.895431,71 211,71 L211,71 L217,71 C218.104569,71 219,70.1045695 219,69 L219,69 L219,15 C219,13.8954305 218.104569,13 217,13 L217,13 Z M199,13 L193,13 C191.895431,13 191,13.8954305 191,15 L191,15 L191,69 C191,70.1045695 191.895431,71 193,71 L193,71 L199,71 C200.104569,71 201,70.1045695 201,69 L201,69 L201,15 C201,13.8954305 200.104569,13 199,13 L199,13 Z M169,13 L163,13 C161.895431,13 161,13.8954305 161,15 L161,15 L161,69 C161,70.1045695 161.895431,71 163,71 L163,71 L169,71 C170.104569,71 171,70.1045695 171,69 L171,69 L171,15 C171,13.8954305 170.104569,13 169,13 L169,13 Z M151,13 L145,13 C143.895431,13 143,13.8954305 143,15 L143,15 L143,69 C143,70.1045695 143.895431,71 145,71 L145,71 L151,71 C152.104569,71 153,70.1045695 153,69 L153,69 L153,15 C153,13.8954305 152.104569,13 151,13 L151,13 Z M133,13 L127,13 C125.895431,13 125,13.8954305 125,15 L125,15 L125,69 C125,70.1045695 125.895431,71 127,71 L127,71 L133,71 C134.104569,71 135,70.1045695 135,69 L135,69 L135,15 C135,13.8954305 134.104569,13 133,13 L133,13 Z M103,13 L97,13 C95.8954305,13 95,13.8954305 95,15 L95,15 L95,69 C95,70.1045695 95.8954305,71 97,71 L97,71 L103,71 C104.104569,71 105,70.1045695 105,69 L105,69 L105,15 C105,13.8954305 104.104569,13 103,13 L103,13 Z M85,13 L79,13 C77.8954305,13 77,13.8954305 77,15 L77,15 L77,69 C77,70.1045695 77.8954305,71 79,71 L79,71 L85,71 C86.1045695,71 87,70.1045695 87,69 L87,69 L87,15 C87,13.8954305 86.1045695,13 85,13 L85,13 Z M67,13 L61,13 C59.8954305,13 59,13.8954305 59,15 L59,15 L59,69 C59,70.1045695 59.8954305,71 61,71 L61,71 L67,71 C68.1045695,71 69,70.1045695 69,69 L69,69 L69,15 C69,13.8954305 68.1045695,13 67,13 L67,13 Z M37,13 L31,13 C29.8954305,13 29,13.8954305 29,15 L29,15 L29,69 C29,70.1045695 29.8954305,71 31,71 L31,71 L37,71 C38.1045695,71 39,70.1045695 39,69 L39,69 L39,15 C39,13.8954305 38.1045695,13 37,13 L37,13 Z M19,13 L13,13 C11.8954305,13 11,13.8954305 11,15 L11,15 L11,69 C11,70.1045695 11.8954305,71 13,71 L13,71 L19,71 C20.1045695,71 21,70.1045695 21,69 L21,69 L21,15 C21,13.8954305 20.1045695,13 19,13 L19,13 Z" id="path-10"></path>
        <filter x="-3.3%" y="-14.2%" width="105.3%" height="123.0%" filterUnits="objectBoundingBox" id="filter-11">
            <feOffset dx="-2" dy="-2" in="SourceAlpha" result="shadowOffsetOuter1"></feOffset>
            <feGaussianBlur stdDeviation="2.5" in="shadowOffsetOuter1" result="shadowBlurOuter1"></feGaussianBlur>
            <feColorMatrix values="0 0 0 0 0   0 0 0 0 0.265002972   0 0 0 0 0.44167162  0 0 0 0.06 0" type="matrix" in="shadowBlurOuter1"></feColorMatrix>
        </filter>
        <linearGradient x1="0%" y1="46.5804908%" x2="100%" y2="46.5804908%" id="linearGradient-12">
            <stop stop-color="#F4F9FF" offset="0%"></stop>
            <stop stop-color="#F8FCFF" offset="50.8249687%"></stop>
            <stop stop-color="#FFFFFF" offset="100%"></stop>
        </linearGradient>
        <linearGradient x1="50%" y1="100%" x2="50%" y2="0%" id="linearGradient-13">
            <stop stop-color="#EFF7FF" offset="0%"></stop>
            <stop stop-color="#F0F8FF" offset="47.4618159%"></stop>
            <stop stop-color="#F8FCFF" offset="100%"></stop>
        </linearGradient>
        <rect id="path-14" x="301" y="95" width="24" height="8" rx="3"></rect>
        <filter x="-29.2%" y="-62.5%" width="158.3%" height="275.0%" filterUnits="objectBoundingBox" id="filter-15">
            <feOffset dx="0" dy="2" in="SourceAlpha" result="shadowOffsetOuter1"></feOffset>
            <feGaussianBlur stdDeviation="2" in="shadowOffsetOuter1" result="shadowBlurOuter1"></feGaussianBlur>
            <feColorMatrix values="0 0 0 0 0.874509804   0 0 0 0 0.925490196   0 0 0 0 0.952941176  0 0 0 0.6 0" type="matrix" in="shadowBlurOuter1"></feColorMatrix>
        </filter>
        <rect id="path-16" x="235" y="95" width="24" height="8" rx="3"></rect>
        <filter x="-29.2%" y="-62.5%" width="158.3%" height="275.0%" filterUnits="objectBoundingBox" id="filter-17">
            <feOffset dx="0" dy="2" in="SourceAlpha" result="shadowOffsetOuter1"></feOffset>
            <feGaussianBlur stdDeviation="2" in="shadowOffsetOuter1" result="shadowBlurOuter1"></feGaussianBlur>
            <feColorMatrix values="0 0 0 0 0.874509804   0 0 0 0 0.925490196   0 0 0 0 0.952941176  0 0 0 0.6 0" type="matrix" in="shadowBlurOuter1"></feColorMatrix>
        </filter>
        <rect id="path-18" x="169" y="95" width="24" height="8" rx="3"></rect>
        <filter x="-29.2%" y="-62.5%" width="158.3%" height="275.0%" filterUnits="objectBoundingBox" id="filter-19">
            <feOffset dx="0" dy="2" in="SourceAlpha" result="shadowOffsetOuter1"></feOffset>
            <feGaussianBlur stdDeviation="2" in="shadowOffsetOuter1" result="shadowBlurOuter1"></feGaussianBlur>
            <feColorMatrix values="0 0 0 0 0.874509804   0 0 0 0 0.925490196   0 0 0 0 0.952941176  0 0 0 0.6 0" type="matrix" in="shadowBlurOuter1"></feColorMatrix>
        </filter>
        <rect id="path-20" x="103" y="95" width="24" height="8" rx="3"></rect>
        <filter x="-29.2%" y="-62.5%" width="158.3%" height="275.0%" filterUnits="objectBoundingBox" id="filter-21">
            <feOffset dx="0" dy="2" in="SourceAlpha" result="shadowOffsetOuter1"></feOffset>
            <feGaussianBlur stdDeviation="2" in="shadowOffsetOuter1" result="shadowBlurOuter1"></feGaussianBlur>
            <feColorMatrix values="0 0 0 0 0.874509804   0 0 0 0 0.925490196   0 0 0 0 0.952941176  0 0 0 0.6 0" type="matrix" in="shadowBlurOuter1"></feColorMatrix>
        </filter>
        <rect id="path-22" x="37" y="95" width="24" height="8" rx="3"></rect>
        <filter x="-29.2%" y="-62.5%" width="158.3%" height="275.0%" filterUnits="objectBoundingBox" id="filter-23">
            <feOffset dx="0" dy="2" in="SourceAlpha" result="shadowOffsetOuter1"></feOffset>
            <feGaussianBlur stdDeviation="2" in="shadowOffsetOuter1" result="shadowBlurOuter1"></feGaussianBlur>
            <feColorMatrix values="0 0 0 0 0.874509804   0 0 0 0 0.925490196   0 0 0 0 0.952941176  0 0 0 0.6 0" type="matrix" in="shadowBlurOuter1"></feColorMatrix>
        </filter>
        <path d="M321,5 L321,79 L0,79 L0,5 L321,5 Z M301,13 L295,13 C293.895431,13 293,13.8954305 293,15 L293,15 L293,69 C293,70.1045695 293.895431,71 295,71 L295,71 L301,71 C302.104569,71 303,70.1045695 303,69 L303,69 L303,15 C303,13.8954305 302.104569,13 301,13 L301,13 Z M283,13 L277,13 C275.895431,13 275,13.8954305 275,15 L275,15 L275,69 C275,70.1045695 275.895431,71 277,71 L277,71 L283,71 C284.104569,71 285,70.1045695 285,69 L285,69 L285,15 C285,13.8954305 284.104569,13 283,13 L283,13 Z M265,13 L259,13 C257.895431,13 257,13.8954305 257,15 L257,15 L257,69 C257,70.1045695 257.895431,71 259,71 L259,71 L265,71 C266.104569,71 267,70.1045695 267,69 L267,69 L267,15 C267,13.8954305 266.104569,13 265,13 L265,13 Z M235,13 L229,13 C227.895431,13 227,13.8954305 227,15 L227,15 L227,69 C227,70.1045695 227.895431,71 229,71 L229,71 L235,71 C236.104569,71 237,70.1045695 237,69 L237,69 L237,15 C237,13.8954305 236.104569,13 235,13 L235,13 Z M217,13 L211,13 C209.895431,13 209,13.8954305 209,15 L209,15 L209,69 C209,70.1045695 209.895431,71 211,71 L211,71 L217,71 C218.104569,71 219,70.1045695 219,69 L219,69 L219,15 C219,13.8954305 218.104569,13 217,13 L217,13 Z M199,13 L193,13 C191.895431,13 191,13.8954305 191,15 L191,15 L191,69 C191,70.1045695 191.895431,71 193,71 L193,71 L199,71 C200.104569,71 201,70.1045695 201,69 L201,69 L201,15 C201,13.8954305 200.104569,13 199,13 L199,13 Z M169,13 L163,13 C161.895431,13 161,13.8954305 161,15 L161,15 L161,69 C161,70.1045695 161.895431,71 163,71 L163,71 L169,71 C170.104569,71 171,70.1045695 171,69 L171,69 L171,15 C171,13.8954305 170.104569,13 169,13 L169,13 Z M151,13 L145,13 C143.895431,13 143,13.8954305 143,15 L143,15 L143,69 C143,70.1045695 143.895431,71 145,71 L145,71 L151,71 C152.104569,71 153,70.1045695 153,69 L153,69 L153,15 C153,13.8954305 152.104569,13 151,13 L151,13 Z M133,13 L127,13 C125.895431,13 125,13.8954305 125,15 L125,15 L125,69 C125,70.1045695 125.895431,71 127,71 L127,71 L133,71 C134.104569,71 135,70.1045695 135,69 L135,69 L135,15 C135,13.8954305 134.104569,13 133,13 L133,13 Z M103,13 L97,13 C95.8954305,13 95,13.8954305 95,15 L95,15 L95,69 C95,70.1045695 95.8954305,71 97,71 L97,71 L103,71 C104.104569,71 105,70.1045695 105,69 L105,69 L105,15 C105,13.8954305 104.104569,13 103,13 L103,13 Z M85,13 L79,13 C77.8954305,13 77,13.8954305 77,15 L77,15 L77,69 C77,70.1045695 77.8954305,71 79,71 L79,71 L85,71 C86.1045695,71 87,70.1045695 87,69 L87,69 L87,15 C87,13.8954305 86.1045695,13 85,13 L85,13 Z M67,13 L61,13 C59.8954305,13 59,13.8954305 59,15 L59,15 L59,69 C59,70.1045695 59.8954305,71 61,71 L61,71 L67,71 C68.1045695,71 69,70.1045695 69,69 L69,69 L69,15 C69,13.8954305 68.1045695,13 67,13 L67,13 Z M37,13 L31,13 C29.8954305,13 29,13.8954305 29,15 L29,15 L29,69 C29,70.1045695 29.8954305,71 31,71 L31,71 L37,71 C38.1045695,71 39,70.1045695 39,69 L39,69 L39,15 C39,13.8954305 38.1045695,13 37,13 L37,13 Z M19,13 L13,13 C11.8954305,13 11,13.8954305 11,15 L11,15 L11,69 C11,70.1045695 11.8954305,71 13,71 L13,71 L19,71 C20.1045695,71 21,70.1045695 21,69 L21,69 L21,15 C21,13.8954305 20.1045695,13 19,13 L19,13 Z" id="path-24"></path>
        <filter x="-3.3%" y="-14.2%" width="105.3%" height="123.0%" filterUnits="objectBoundingBox" id="filter-25">
            <feOffset dx="-2" dy="-2" in="SourceAlpha" result="shadowOffsetOuter1"></feOffset>
            <feGaussianBlur stdDeviation="2.5" in="shadowOffsetOuter1" result="shadowBlurOuter1"></feGaussianBlur>
            <feColorMatrix values="0 0 0 0 0   0 0 0 0 0.265002972   0 0 0 0 0.44167162  0 0 0 0.06 0" type="matrix" in="shadowBlurOuter1"></feColorMatrix>
        </filter>
        <rect id="path-26" x="301" y="95" width="24" height="8" rx="3"></rect>
        <filter x="-29.2%" y="-62.5%" width="158.3%" height="275.0%" filterUnits="objectBoundingBox" id="filter-27">
            <feOffset dx="0" dy="2" in="SourceAlpha" result="shadowOffsetOuter1"></feOffset>
            <feGaussianBlur stdDeviation="2" in="shadowOffsetOuter1" result="shadowBlurOuter1"></feGaussianBlur>
            <feColorMatrix values="0 0 0 0 0.874509804   0 0 0 0 0.925490196   0 0 0 0 0.952941176  0 0 0 0.6 0" type="matrix" in="shadowBlurOuter1"></feColorMatrix>
        </filter>
        <rect id="path-28" x="235" y="95" width="24" height="8" rx="3"></rect>
        <filter x="-29.2%" y="-62.5%" width="158.3%" height="275.0%" filterUnits="objectBoundingBox" id="filter-29">
            <feOffset dx="0" dy="2" in="SourceAlpha" result="shadowOffsetOuter1"></feOffset>
            <feGaussianBlur stdDeviation="2" in="shadowOffsetOuter1" result="shadowBlurOuter1"></feGaussianBlur>
            <feColorMatrix values="0 0 0 0 0.874509804   0 0 0 0 0.925490196   0 0 0 0 0.952941176  0 0 0 0.6 0" type="matrix" in="shadowBlurOuter1"></feColorMatrix>
        </filter>
        <rect id="path-30" x="169" y="95" width="24" height="8" rx="3"></rect>
        <filter x="-29.2%" y="-62.5%" width="158.3%" height="275.0%" filterUnits="objectBoundingBox" id="filter-31">
            <feOffset dx="0" dy="2" in="SourceAlpha" result="shadowOffsetOuter1"></feOffset>
            <feGaussianBlur stdDeviation="2" in="shadowOffsetOuter1" result="shadowBlurOuter1"></feGaussianBlur>
            <feColorMatrix values="0 0 0 0 0.874509804   0 0 0 0 0.925490196   0 0 0 0 0.952941176  0 0 0 0.6 0" type="matrix" in="shadowBlurOuter1"></feColorMatrix>
        </filter>
        <rect id="path-32" x="103" y="95" width="24" height="8" rx="3"></rect>
        <filter x="-29.2%" y="-62.5%" width="158.3%" height="275.0%" filterUnits="objectBoundingBox" id="filter-33">
            <feOffset dx="0" dy="2" in="SourceAlpha" result="shadowOffsetOuter1"></feOffset>
            <feGaussianBlur stdDeviation="2" in="shadowOffsetOuter1" result="shadowBlurOuter1"></feGaussianBlur>
            <feColorMatrix values="0 0 0 0 0.874509804   0 0 0 0 0.925490196   0 0 0 0 0.952941176  0 0 0 0.6 0" type="matrix" in="shadowBlurOuter1"></feColorMatrix>
        </filter>
        <rect id="path-34" x="37" y="95" width="24" height="8" rx="3"></rect>
        <filter x="-29.2%" y="-62.5%" width="158.3%" height="275.0%" filterUnits="objectBoundingBox" id="filter-35">
            <feOffset dx="0" dy="2" in="SourceAlpha" result="shadowOffsetOuter1"></feOffset>
            <feGaussianBlur stdDeviation="2" in="shadowOffsetOuter1" result="shadowBlurOuter1"></feGaussianBlur>
            <feColorMatrix values="0 0 0 0 0.874509804   0 0 0 0 0.925490196   0 0 0 0 0.952941176  0 0 0 0.6 0" type="matrix" in="shadowBlurOuter1"></feColorMatrix>
        </filter>
        <rect id="path-36" x="162" y="0" width="123" height="229" rx="60.5"></rect>
        <filter x="-26.0%" y="-12.2%" width="152.0%" height="127.9%" filterUnits="objectBoundingBox" id="filter-37">
            <feMorphology radius="5" operator="dilate" in="SourceAlpha" result="shadowSpreadOuter1"></feMorphology>
            <feOffset dx="0" dy="4" in="shadowSpreadOuter1" result="shadowOffsetOuter1"></feOffset>
            <feGaussianBlur stdDeviation="5" in="shadowOffsetOuter1" result="shadowBlurOuter1"></feGaussianBlur>
            <feColorMatrix values="0 0 0 0 0   0 0 0 0 0.221374716   0 0 0 0 0.479645218  0 0 0 0.05 0" type="matrix" in="shadowBlurOuter1"></feColorMatrix>
        </filter>
        <linearGradient x1="50%" y1="2.62529019%" x2="50%" y2="100%" id="linearGradient-38">
            <stop stop-color="#005ABB" stop-opacity="0.07" offset="0%"></stop>
            <stop stop-color="#FFFFFF" stop-opacity="0" offset="100%"></stop>
        </linearGradient>
        <rect id="path-39" x="198" y="35" width="51" height="159" rx="25.5"></rect>
        <filter x="-12.7%" y="-4.1%" width="125.5%" height="108.2%" filterUnits="objectBoundingBox" id="filter-40">
            <feMorphology radius="2" operator="erode" in="SourceAlpha" result="shadowSpreadInner1"></feMorphology>
            <feGaussianBlur stdDeviation="5" in="shadowSpreadInner1" result="shadowBlurInner1"></feGaussianBlur>
            <feOffset dx="0" dy="1" in="shadowBlurInner1" result="shadowOffsetInner1"></feOffset>
            <feComposite in="shadowOffsetInner1" in2="SourceAlpha" operator="arithmetic" k2="-1" k3="1" result="shadowInnerInner1"></feComposite>
            <feColorMatrix values="0 0 0 0 0   0 0 0 0 0.31372549   0 0 0 0 0.678431373  0 0 0 0.15 0" type="matrix" in="shadowInnerInner1"></feColorMatrix>
        </filter>
        <path d="M316,5 L316,39 L377,39 L344,94 L344,119 L372,119 C381.941125,119 390,127.058875 390,137 L390,170.5 C390,182.926407 379.926407,193 367.5,193 C355.073593,193 345,182.926407 345,170.5 L345,167 L345,167 L309,167 L309,175 C309,204.823376 333.176624,229 363,229 L376,229 C403.614237,229 426,206.614237 426,179 L426,133 C426,109.804041 407.195959,91 384,91 L384,91 L384,91 L422,31 L422,5 L316,5 Z" id="path-41"></path>
        <filter x="-27.4%" y="-12.5%" width="154.7%" height="128.6%" filterUnits="objectBoundingBox" id="filter-42">
            <feMorphology radius="5" operator="dilate" in="SourceAlpha" result="shadowSpreadOuter1"></feMorphology>
            <feOffset dx="0" dy="4" in="shadowSpreadOuter1" result="shadowOffsetOuter1"></feOffset>
            <feGaussianBlur stdDeviation="5" in="shadowOffsetOuter1" result="shadowBlurOuter1"></feGaussianBlur>
            <feColorMatrix values="0 0 0 0 0   0 0 0 0 0.221374716   0 0 0 0 0.479645218  0 0 0 0.05 0" type="matrix" in="shadowBlurOuter1"></feColorMatrix>
        </filter>
        <polygon id="path-43" points="44 5 81 5 41 139 79 139 85 69 115 69 115 139 138 139 138 173 115 173 115 227 79 229 79 173 0 173 0 153"></polygon>
        <filter x="-23.2%" y="-12.5%" width="146.4%" height="128.8%" filterUnits="objectBoundingBox" id="filter-44">
            <feMorphology radius="5" operator="dilate" in="SourceAlpha" result="shadowSpreadOuter1"></feMorphology>
            <feOffset dx="0" dy="4" in="shadowSpreadOuter1" result="shadowOffsetOuter1"></feOffset>
            <feGaussianBlur stdDeviation="5" in="shadowOffsetOuter1" result="shadowBlurOuter1"></feGaussianBlur>
            <feColorMatrix values="0 0 0 0 0   0 0 0 0 0.221374716   0 0 0 0 0.479645218  0 0 0 0.05 0" type="matrix" in="shadowBlurOuter1"></feColorMatrix>
        </filter>
        <filter x="-20.0%" y="-42.9%" width="140.0%" height="185.7%" filterUnits="objectBoundingBox" id="filter-45">
            <feGaussianBlur stdDeviation="1" in="SourceGraphic"></feGaussianBlur>
        </filter>
        <circle id="path-46" cx="41" cy="41" r="41"></circle>
        <filter x="-39.0%" y="-34.1%" width="178.0%" height="178.0%" filterUnits="objectBoundingBox" id="filter-47">
            <feMorphology radius="5" operator="dilate" in="SourceAlpha" result="shadowSpreadOuter1"></feMorphology>
            <feOffset dx="0" dy="4" in="shadowSpreadOuter1" result="shadowOffsetOuter1"></feOffset>
            <feGaussianBlur stdDeviation="5" in="shadowOffsetOuter1" result="shadowBlurOuter1"></feGaussianBlur>
            <feColorMatrix values="0 0 0 0 0   0 0 0 0 0.221374716   0 0 0 0 0.479645218  0 0 0 0.05 0" type="matrix" in="shadowBlurOuter1"></feColorMatrix>
        </filter>
    </defs>
    <g id="页面-1" stroke="none" stroke-width="1" fill="none" fill-rule="evenodd">
        <g id="403" transform="translate(-723.000000, -310.000000)">
            <g id="403图" transform="translate(723.000000, 326.000000)">
                <g id="背景" transform="translate(0.000000, 14.000000)">
                    <mask id="mask-3" fill="white">
                        <use xlink:href="#path-2"></use>
                    </mask>
                    <use id="路径-11" fill="url(#linearGradient-1)" xlink:href="#path-2"></use>
                    <g id="公路" mask="url(#mask-3)">
                        <g transform="translate(-64.000000, 79.000000)">
                            <g id="矩形备份-22" stroke="none" fill="none" transform="translate(480.391312, 246.321743) rotate(-22.000000) translate(-480.391312, -246.321743) ">
                                <use fill="black" fill-opacity="1" filter="url(#filter-6)" xlink:href="#path-5"></use>
                                <use fill="url(#linearGradient-4)" fill-rule="evenodd" xlink:href="#path-5"></use>
                            </g>
                            <rect id="矩形备份-22" stroke="none" fill="#F8F8F8" fill-rule="evenodd" transform="translate(480.000000, 241.000000) rotate(-22.000000) translate(-480.000000, -241.000000) " x="69" y="237" width="822" height="8"></rect>
                            <line x1="186" y1="423" x2="979" y2="101" id="直线" stroke="url(#linearGradient-7)" stroke-width="4" fill="none" stroke-linecap="round" stroke-dasharray="30"></line>
                            <line x1="0" y1="381" x2="830" y2="47" id="直线备份" stroke="url(#linearGradient-8)" stroke-width="4" fill="none" stroke-linecap="round" stroke-dasharray="30"></line>
                        </g>
                    </g>
                    <g id="栏杆" mask="url(#mask-3)">
                        <g transform="translate(-45.000000, 230.000000)">
                            <g id="编组">
                                <g id="形状结合">
                                    <use fill="black" fill-opacity="1" filter="url(#filter-11)" xlink:href="#path-10"></use>
                                    <use fill="url(#linearGradient-9)" fill-rule="evenodd" xlink:href="#path-10"></use>
                                </g>
                                <path d="M313,0 C317.418278,-1.69980292e-15 321,3.581722 321,8 L321,98 L321,98 L305,98 L305,8 C305,3.581722 308.581722,8.11624501e-16 313,0 Z" id="矩形" fill="url(#linearGradient-12)"></path>
                                <path d="M247,0 C251.418278,-1.69980292e-15 255,3.581722 255,8 L255,98 L255,98 L239,98 L239,8 C239,3.581722 242.581722,8.11624501e-16 247,0 Z" id="矩形备份-14" fill="url(#linearGradient-12)"></path>
                                <path d="M181,0 C185.418278,-1.69980292e-15 189,3.581722 189,8 L189,98 L189,98 L173,98 L173,8 C173,3.581722 176.581722,8.11624501e-16 181,0 Z" id="矩形备份-16" fill="url(#linearGradient-12)"></path>
                                <path d="M115,0 C119.418278,-1.69980292e-15 123,3.581722 123,8 L123,98 L123,98 L107,98 L107,8 C107,3.581722 110.581722,8.11624501e-16 115,0 Z" id="矩形备份-18" fill="url(#linearGradient-12)"></path>
                                <path d="M49,0 C53.418278,-1.69980292e-15 57,3.581722 57,8 L57,98 L57,98 L41,98 L41,8 C41,3.581722 44.581722,8.11624501e-16 49,0 Z" id="矩形备份-20" fill="url(#linearGradient-12)"></path>
                                <g id="矩形">
                                    <use fill="black" fill-opacity="1" filter="url(#filter-15)" xlink:href="#path-14"></use>
                                    <use fill="url(#linearGradient-13)" fill-rule="evenodd" xlink:href="#path-14"></use>
                                </g>
                                <g id="矩形备份-15">
                                    <use fill="black" fill-opacity="1" filter="url(#filter-17)" xlink:href="#path-16"></use>
                                    <use fill="url(#linearGradient-13)" fill-rule="evenodd" xlink:href="#path-16"></use>
                                </g>
                                <g id="矩形备份-17">
                                    <use fill="black" fill-opacity="1" filter="url(#filter-19)" xlink:href="#path-18"></use>
                                    <use fill="url(#linearGradient-13)" fill-rule="evenodd" xlink:href="#path-18"></use>
                                </g>
                                <g id="矩形备份-19">
                                    <use fill="black" fill-opacity="1" filter="url(#filter-21)" xlink:href="#path-20"></use>
                                    <use fill="url(#linearGradient-13)" fill-rule="evenodd" xlink:href="#path-20"></use>
                                </g>
                                <g id="矩形备份-21">
                                    <use fill="black" fill-opacity="1" filter="url(#filter-23)" xlink:href="#path-22"></use>
                                    <use fill="url(#linearGradient-13)" fill-rule="evenodd" xlink:href="#path-22"></use>
                                </g>
                            </g>
                            <g id="编组备份" transform="translate(625.500000, 64.500000) scale(-1, 1) translate(-625.500000, -64.500000) translate(463.000000, 13.000000)">
                                <g id="形状结合">
                                    <use fill="black" fill-opacity="1" filter="url(#filter-25)" xlink:href="#path-24"></use>
                                    <use fill="url(#linearGradient-9)" fill-rule="evenodd" xlink:href="#path-24"></use>
                                </g>
                                <path d="M313,0 C317.418278,-1.69980292e-15 321,3.581722 321,8 L321,98 L321,98 L305,98 L305,8 C305,3.581722 308.581722,8.11624501e-16 313,0 Z" id="矩形" fill="url(#linearGradient-12)"></path>
                                <path d="M247,0 C251.418278,-1.69980292e-15 255,3.581722 255,8 L255,98 L255,98 L239,98 L239,8 C239,3.581722 242.581722,8.11624501e-16 247,0 Z" id="矩形备份-14" fill="url(#linearGradient-12)"></path>
                                <path d="M181,0 C185.418278,-1.69980292e-15 189,3.581722 189,8 L189,98 L189,98 L173,98 L173,8 C173,3.581722 176.581722,8.11624501e-16 181,0 Z" id="矩形备份-16" fill="url(#linearGradient-12)"></path>
                                <path d="M115,0 C119.418278,-1.69980292e-15 123,3.581722 123,8 L123,98 L123,98 L107,98 L107,8 C107,3.581722 110.581722,8.11624501e-16 115,0 Z" id="矩形备份-18" fill="url(#linearGradient-12)"></path>
                                <path d="M49,0 C53.418278,-1.69980292e-15 57,3.581722 57,8 L57,98 L57,98 L41,98 L41,8 C41,3.581722 44.581722,8.11624501e-16 49,0 Z" id="矩形备份-20" fill="url(#linearGradient-12)"></path>
                                <g id="矩形">
                                    <use fill="black" fill-opacity="1" filter="url(#filter-27)" xlink:href="#path-26"></use>
                                    <use fill="url(#linearGradient-13)" fill-rule="evenodd" xlink:href="#path-26"></use>
                                </g>
                                <g id="矩形备份-15">
                                    <use fill="black" fill-opacity="1" filter="url(#filter-29)" xlink:href="#path-28"></use>
                                    <use fill="url(#linearGradient-13)" fill-rule="evenodd" xlink:href="#path-28"></use>
                                </g>
                                <g id="矩形备份-17">
                                    <use fill="black" fill-opacity="1" filter="url(#filter-31)" xlink:href="#path-30"></use>
                                    <use fill="url(#linearGradient-13)" fill-rule="evenodd" xlink:href="#path-30"></use>
                                </g>
                                <g id="矩形备份-19">
                                    <use fill="black" fill-opacity="1" filter="url(#filter-33)" xlink:href="#path-32"></use>
                                    <use fill="url(#linearGradient-13)" fill-rule="evenodd" xlink:href="#path-32"></use>
                                </g>
                                <g id="矩形备份-21">
                                    <use fill="black" fill-opacity="1" filter="url(#filter-35)" xlink:href="#path-34"></use>
                                    <use fill="url(#linearGradient-13)" fill-rule="evenodd" xlink:href="#path-34"></use>
                                </g>
                            </g>
                        </g>
                    </g>
                </g>
                <g id="数字" transform="translate(142.000000, 0.000000)">
                    <g id="矩形">
                        <use fill="black" fill-opacity="1" filter="url(#filter-37)" xlink:href="#path-36"></use>
                        <use fill="#FFFFFF" fill-rule="evenodd" xlink:href="#path-36"></use>
                    </g>
                    <g id="矩形">
                        <use fill="url(#linearGradient-38)" fill-rule="evenodd" xlink:href="#path-39"></use>
                        <use fill="black" fill-opacity="1" filter="url(#filter-40)" xlink:href="#path-39"></use>
                    </g>
                    <g id="路径-25">
                        <use fill="black" fill-opacity="1" filter="url(#filter-42)" xlink:href="#path-41"></use>
                        <use fill="#FFFFFF" fill-rule="evenodd" xlink:href="#path-41"></use>
                    </g>
                    <g id="路径-7备份">
                        <use fill="black" fill-opacity="1" filter="url(#filter-44)" xlink:href="#path-43"></use>
                        <use fill="#FFFFFF" fill-rule="evenodd" xlink:href="#path-43"></use>
                    </g>
                </g>
                <g id="指示牌" transform="translate(292.000000, 179.000000)">
                    <ellipse id="椭圆形" fill="#E4E4E4" cx="40.5" cy="200" rx="26.5" ry="7"></ellipse>
                    <ellipse id="椭圆形" fill="#DBDBDB" filter="url(#filter-45)" cx="40.5" cy="199.5" rx="7.5" ry="3.5"></ellipse>
                    <rect id="矩形" fill="#E4E4E4" x="38" y="80" width="5" height="121"></rect>
                    <g id="椭圆形">
                        <use fill="black" fill-opacity="1" filter="url(#filter-47)" xlink:href="#path-46"></use>
                        <use fill="#FFFFFF" fill-rule="evenodd" xlink:href="#path-46"></use>
                    </g>
                    <circle id="椭圆形" fill="#E27272" cx="41" cy="41" r="36"></circle>
                    <rect id="矩形" fill="#FFFFFF" x="20" y="38" width="42" height="7" rx="3.5"></rect>
                </g>
            </g>
        </g>
    </g>
</svg>