<?xml version="1.0" encoding="UTF-8"?>
<svg width="730px" height="398px" viewBox="0 0 730 398" version="1.1" xmlns="http://www.w3.org/2000/svg" xmlns:xlink="http://www.w3.org/1999/xlink">
    <!-- Generator: Sketch 60.1 (88133) - https://sketch.com -->
    <title>404图</title>
    <desc>Created with Sketch.</desc>
    <defs>
        <linearGradient x1="50%" y1="2.62529019%" x2="50%" y2="34.5117641%" id="linearGradient-1">
            <stop stop-color="#005ABB" stop-opacity="0.04" offset="0%"></stop>
            <stop stop-color="#FFFFFF" stop-opacity="0" offset="100%"></stop>
        </linearGradient>
        <rect id="path-2" x="162" y="0" width="123" height="229" rx="60.5"></rect>
        <filter x="-26.0%" y="-12.2%" width="152.0%" height="127.9%" filterUnits="objectBoundingBox" id="filter-3">
            <feMorphology radius="5" operator="dilate" in="SourceAlpha" result="shadowSpreadOuter1"></feMorphology>
            <feOffset dx="0" dy="4" in="shadowSpreadOuter1" result="shadowOffsetOuter1"></feOffset>
            <feGaussianBlur stdDeviation="5" in="shadowOffsetOuter1" result="shadowBlurOuter1"></feGaussianBlur>
            <feColorMatrix values="0 0 0 0 0   0 0 0 0 0.221374716   0 0 0 0 0.479645218  0 0 0 0.05 0" type="matrix" in="shadowBlurOuter1"></feColorMatrix>
        </filter>
        <linearGradient x1="50%" y1="2.62529019%" x2="50%" y2="100%" id="linearGradient-4">
            <stop stop-color="#005ABB" stop-opacity="0.07" offset="0%"></stop>
            <stop stop-color="#FFFFFF" stop-opacity="0" offset="100%"></stop>
        </linearGradient>
        <rect id="path-5" x="198" y="35" width="51" height="159" rx="25.5"></rect>
        <filter x="-12.7%" y="-4.1%" width="125.5%" height="108.2%" filterUnits="objectBoundingBox" id="filter-6">
            <feMorphology radius="2" operator="erode" in="SourceAlpha" result="shadowSpreadInner1"></feMorphology>
            <feGaussianBlur stdDeviation="5" in="shadowSpreadInner1" result="shadowBlurInner1"></feGaussianBlur>
            <feOffset dx="0" dy="1" in="shadowBlurInner1" result="shadowOffsetInner1"></feOffset>
            <feComposite in="shadowOffsetInner1" in2="SourceAlpha" operator="arithmetic" k2="-1" k3="1" result="shadowInnerInner1"></feComposite>
            <feColorMatrix values="0 0 0 0 0   0 0 0 0 0.31372549   0 0 0 0 0.678431373  0 0 0 0.15 0" type="matrix" in="shadowInnerInner1"></feColorMatrix>
        </filter>
        <polygon id="path-7" points="353 5 390 5 350 139 388 139 394 69 424 69 424 139 447 139 447 173 424 173 424 227 388 229 388 173 309 173 309 153"></polygon>
        <filter x="-23.2%" y="-12.5%" width="146.4%" height="128.8%" filterUnits="objectBoundingBox" id="filter-8">
            <feMorphology radius="5" operator="dilate" in="SourceAlpha" result="shadowSpreadOuter1"></feMorphology>
            <feOffset dx="0" dy="4" in="shadowSpreadOuter1" result="shadowOffsetOuter1"></feOffset>
            <feGaussianBlur stdDeviation="5" in="shadowOffsetOuter1" result="shadowBlurOuter1"></feGaussianBlur>
            <feColorMatrix values="0 0 0 0 0   0 0 0 0 0.221374716   0 0 0 0 0.479645218  0 0 0 0.05 0" type="matrix" in="shadowBlurOuter1"></feColorMatrix>
        </filter>
        <polygon id="path-9" points="44 5 81 5 41 139 79 139 85 69 115 69 115 139 138 139 138 173 115 173 115 227 79 229 79 173 0 173 0 153"></polygon>
        <filter x="-23.2%" y="-12.5%" width="146.4%" height="128.8%" filterUnits="objectBoundingBox" id="filter-10">
            <feMorphology radius="5" operator="dilate" in="SourceAlpha" result="shadowSpreadOuter1"></feMorphology>
            <feOffset dx="0" dy="4" in="shadowSpreadOuter1" result="shadowOffsetOuter1"></feOffset>
            <feGaussianBlur stdDeviation="5" in="shadowOffsetOuter1" result="shadowBlurOuter1"></feGaussianBlur>
            <feColorMatrix values="0 0 0 0 0   0 0 0 0 0.221374716   0 0 0 0 0.479645218  0 0 0 0.05 0" type="matrix" in="shadowBlurOuter1"></feColorMatrix>
        </filter>
        <linearGradient x1="50%" y1="42.0363347%" x2="50%" y2="100%" id="linearGradient-11">
            <stop stop-color="#F6F8FB" offset="0%"></stop>
            <stop stop-color="#FFFFFF" stop-opacity="0" offset="100%"></stop>
        </linearGradient>
        <linearGradient x1="50%" y1="42.0363347%" x2="50%" y2="100%" id="linearGradient-12">
            <stop stop-color="#006BE4" stop-opacity="0.04" offset="0%"></stop>
            <stop stop-color="#FFFFFF" stop-opacity="0" offset="100%"></stop>
        </linearGradient>
        <path d="M722.864523,3.1245849 C718.021434,0.67241493 709.255604,0.303476672 696.567031,2.01777013 C677.534172,4.58921032 639.749504,24.9566718 621.92628,52.7865857 C610.04413,71.3398616 601.776494,88.8806659 597.12337,105.408999 C556.796584,78.5709054 529.641824,66.2679059 515.659089,68.5 C494.684988,71.8481412 436.96574,111.127515 428.699015,111.127515 C423.187865,111.127515 382.629994,111.127515 307.0254,111.127515 C277.452041,89.9668923 258.317283,80.4339972 249.621124,82.5288294 C240.924965,84.6236616 226.838955,91.9473851 207.363092,104.5 C192.222668,94.3117416 180.967085,89.2176123 173.596345,89.2176123 C166.225605,89.2176123 159.941611,91.0039442 154.744364,94.576608 C115.719243,72.0854389 89.5470035,62.5035911 76.2276458,65.8310646 C62.9082881,69.158538 37.4990728,78.4828621 0,93.8040367 L0,254.604227 L723.426114,254.604227 L722.864523,3.1245849 Z" id="path-13"></path>
        <linearGradient x1="79.9529376%" y1="38.9341691%" x2="44.592468%" y2="38.9341691%" id="linearGradient-15">
            <stop stop-color="#BABABA" stop-opacity="0" offset="0%"></stop>
            <stop stop-color="#002B5E" stop-opacity="0.06" offset="100%"></stop>
        </linearGradient>
        <filter x="-7.7%" y="-3.7%" width="115.4%" height="107.4%" filterUnits="objectBoundingBox" id="filter-16">
            <feGaussianBlur stdDeviation="2" in="SourceGraphic"></feGaussianBlur>
        </filter>
        <linearGradient x1="79.9529376%" y1="38.9341691%" x2="44.592468%" y2="38.9341691%" id="linearGradient-17">
            <stop stop-color="#BABABA" stop-opacity="0" offset="0%"></stop>
            <stop stop-color="#002B5E" stop-opacity="0.06" offset="100%"></stop>
        </linearGradient>
        <filter x="-6.5%" y="-9.7%" width="113.0%" height="119.3%" filterUnits="objectBoundingBox" id="filter-18">
            <feGaussianBlur stdDeviation="2" in="SourceGraphic"></feGaussianBlur>
        </filter>
        <linearGradient x1="79.9529376%" y1="38.9341691%" x2="44.592468%" y2="38.9341691%" id="linearGradient-19">
            <stop stop-color="#BABABA" stop-opacity="0" offset="0%"></stop>
            <stop stop-color="#002B5E" stop-opacity="0.06" offset="100%"></stop>
        </linearGradient>
        <filter x="-7.9%" y="-15.9%" width="115.7%" height="131.8%" filterUnits="objectBoundingBox" id="filter-20">
            <feGaussianBlur stdDeviation="2" in="SourceGraphic"></feGaussianBlur>
        </filter>
        <linearGradient x1="79.9529376%" y1="38.9341691%" x2="44.592468%" y2="38.9341691%" id="linearGradient-21">
            <stop stop-color="#BABABA" stop-opacity="0" offset="0%"></stop>
            <stop stop-color="#002B5E" stop-opacity="0.06" offset="100%"></stop>
        </linearGradient>
        <filter x="-7.8%" y="-15.8%" width="115.6%" height="131.6%" filterUnits="objectBoundingBox" id="filter-22">
            <feGaussianBlur stdDeviation="2" in="SourceGraphic"></feGaussianBlur>
        </filter>
        <linearGradient x1="79.9529376%" y1="38.9341691%" x2="44.592468%" y2="38.9341691%" id="linearGradient-23">
            <stop stop-color="#BABABA" stop-opacity="0" offset="0%"></stop>
            <stop stop-color="#002B5E" stop-opacity="0.06" offset="100%"></stop>
        </linearGradient>
        <filter x="-6.5%" y="-9.4%" width="112.9%" height="118.9%" filterUnits="objectBoundingBox" id="filter-24">
            <feGaussianBlur stdDeviation="2" in="SourceGraphic"></feGaussianBlur>
        </filter>
        <linearGradient x1="79.9529376%" y1="38.9341691%" x2="44.592468%" y2="38.9341691%" id="linearGradient-25">
            <stop stop-color="#BABABA" stop-opacity="0" offset="0%"></stop>
            <stop stop-color="#002B5E" stop-opacity="0.06" offset="100%"></stop>
        </linearGradient>
        <filter x="-8.8%" y="-16.3%" width="117.6%" height="132.6%" filterUnits="objectBoundingBox" id="filter-26">
            <feGaussianBlur stdDeviation="2" in="SourceGraphic"></feGaussianBlur>
        </filter>
        <filter x="-6.7%" y="-6.8%" width="113.4%" height="113.6%" filterUnits="objectBoundingBox" id="filter-27">
            <feGaussianBlur stdDeviation="2" in="SourceGraphic"></feGaussianBlur>
        </filter>
        <filter x="-8.4%" y="-6.2%" width="116.8%" height="112.4%" filterUnits="objectBoundingBox" id="filter-28">
            <feGaussianBlur stdDeviation="2" in="SourceGraphic"></feGaussianBlur>
        </filter>
    </defs>
    <g id="页面-1" stroke="none" stroke-width="1" fill="none" fill-rule="evenodd">
        <g id="404" transform="translate(-723.000000, -333.000000)">
            <g id="404图" transform="translate(723.000000, 333.000000)">
                <polygon id="路径-11" fill="url(#linearGradient-1)" points="0 42 132 -1.46727075e-12 265 63 463 10 578 63 730 25 730 413 0 413"></polygon>
                <g id="数字" transform="translate(141.000000, 16.000000)">
                    <g id="编组-14">
                        <g id="矩形">
                            <use fill="black" fill-opacity="1" filter="url(#filter-3)" xlink:href="#path-2"></use>
                            <use fill="#FFFFFF" fill-rule="evenodd" xlink:href="#path-2"></use>
                        </g>
                        <g id="矩形">
                            <use fill="url(#linearGradient-4)" fill-rule="evenodd" xlink:href="#path-5"></use>
                            <use fill="black" fill-opacity="1" filter="url(#filter-6)" xlink:href="#path-5"></use>
                        </g>
                        <g id="路径-7备份">
                            <use fill="black" fill-opacity="1" filter="url(#filter-8)" xlink:href="#path-7"></use>
                            <use fill="#FFFFFF" fill-rule="evenodd" xlink:href="#path-7"></use>
                        </g>
                        <g id="路径-7备份-2">
                            <use fill="black" fill-opacity="1" filter="url(#filter-10)" xlink:href="#path-9"></use>
                            <use fill="#FFFFFF" fill-rule="evenodd" xlink:href="#path-9"></use>
                        </g>
                    </g>
                </g>
                <g id="山" transform="translate(2.747420, 143.500000)">
                    <path d="M722.864523,3.1245849 C718.021434,0.67241493 709.255604,0.303476672 696.567031,2.01777013 C677.534172,4.58921032 639.749504,24.9566718 621.92628,52.7865857 C610.04413,71.3398616 601.776494,88.8806659 597.12337,105.408999 C556.796584,78.5709054 529.641824,66.2679059 515.659089,68.5 C494.684988,71.8481412 436.96574,111.127515 428.699015,111.127515 C423.187865,111.127515 382.629994,111.127515 307.0254,111.127515 C277.452041,89.9668923 258.317283,80.4339972 249.621124,82.5288294 C240.924965,84.6236616 226.838955,91.9473851 207.363092,104.5 C192.222668,94.3117416 180.967085,89.2176123 173.596345,89.2176123 C166.225605,89.2176123 159.941611,91.0039442 154.744364,94.576608 C115.719243,72.0854389 89.5470035,62.5035911 76.2276458,65.8310646 C62.9082881,69.158538 37.4990728,78.4828621 -1.13686838e-13,93.8040367 L-1.13686838e-13,254.604227 L723.426114,254.604227 L722.864523,3.1245849 Z" id="蒙版" fill="url(#linearGradient-11)"></path>
                    <g>
                        <mask id="mask-14" fill="white">
                            <use xlink:href="#path-13"></use>
                        </mask>
                        <use id="蒙版" fill="url(#linearGradient-12)" xlink:href="#path-13"></use>
                        <g id="山包" mask="url(#mask-14)">
                            <g transform="translate(62.252580, -14.000000)">
                                <g transform="translate(0.974707, 0.000000)">
                                    <g id="编组-8" transform="translate(610.177963, 0.000000)">
                                        <path d="M30.9097399,11.2446826 C16.5115436,17.8016537 16.5115436,31.7776836 30.9097399,53.1727722 C45.3079363,74.5678608 35.0046896,96.9068255 0,120.189666 L77.8456015,163.15282 L73.6752624,0 L30.9097399,11.2446826 Z" id="路径-37" fill="url(#linearGradient-15)" filter="url(#filter-16)"></path>
                                        <path d="M31.9097399,12.2446826 C17.5115436,18.8016537 17.5115436,32.7776836 31.9097399,54.1727722 C46.3079363,75.5678608 36.0046896,97.9068255 1,121.189666 L78.8456015,164.15282 L74.6752624,1 L31.9097399,12.2446826 Z" id="路径-37" fill="#FFFFFF"></path>
                                    </g>
                                    <g id="编组-13" transform="translate(0.000000, 77.500000)">
                                        <path d="M16.7122154,62.8766723 L55.220683,61.8367546 L38.0814156,59.1108779 C74.9124207,39.9128191 92.8852822,29.5654937 92,28.0689015 C90.6720767,25.8240132 25.8918595,-8.55130874 8.60042534,3.19354081 C-8.6910088,14.9383904 4.11876918,38.5465874 12.1323806,47.469934 C17.4747882,53.4188317 19.0013998,58.5544111 16.7122154,62.8766723 Z" id="路径-14" fill="url(#linearGradient-17)" filter="url(#filter-18)"></path>
                                        <path d="M18.7122154,62.8766723 L57.220683,61.8367546 L40.0814156,59.1108779 L91.5170779,31.076608 C49.1002656,4.65799685 22.1280481,-4.63635889 10.6004253,3.19354081 C-6.6910088,14.9383904 6.11876918,38.5465874 14.1323806,47.469934 C19.4747882,53.4188317 21.0013998,58.5544111 18.7122154,62.8766723 Z" id="路径-14" fill="#FFFFFF"></path>
                                    </g>
                                    <g id="编组-11" transform="translate(99.457518, 101.000195)">
                                        <path d="M76.2789384,35.2979926 L8.49985691,37.6989223 C2.83328564,28.2438426 -7.10542736e-15,21.0743621 -7.10542736e-15,16.1904808 C-7.10542736e-15,8.86465892 1.46976231,3.9230055 7.442266,0.529328649 C11.4239351,-1.73312258 23.5026092,3.25703606 43.6782882,15.4998046 L76.2789384,35.2979926 Z" id="路径-15" fill="url(#linearGradient-19)" filter="url(#filter-20)"></path>
                                        <path d="M77.2789384,36.2979926 L9.49985691,38.6989223 C3.83328564,29.2438426 1,22.0743621 1,17.1904808 C1,9.86465892 2.46976231,4.9230055 8.442266,1.52932865 C12.4239351,-0.733122585 24.5026092,4.25703606 44.6782882,16.4998046 L77.2789384,36.2979926 Z" id="路径-15" fill="#FFFFFF"></path>
                                    </g>
                                    <g id="编组-12" transform="translate(177.764669, 95.219465)">
                                        <path d="M76.8848121,35.594227 L9.24144145,38.0270461 C1.25985245,27.4723083 -1.55162078,18.7875988 0.807021778,11.9729178 C4.34498561,1.75089613 9.0690304,-9.05941988e-13 12.2492939,-9.05941988e-13 C15.4295574,-9.05941988e-13 27.1298893,2.82833867 45.3771285,15.1892966 C57.5419546,23.4299352 68.0445158,30.2315787 76.8848121,35.594227 Z" id="路径-16" fill="url(#linearGradient-21)" filter="url(#filter-22)"></path>
                                        <path d="M77.8848121,36.594227 L10.2414414,39.0270461 C2.25985245,28.4723083 -0.551620777,19.7875988 1.80702178,12.9729178 C5.34498561,2.75089613 10.0690304,1 13.2492939,1 C16.4295574,1 28.1298893,3.82833867 46.3771285,16.1892966 C58.5419546,24.4299352 69.0445158,31.2315787 77.8848121,36.594227 Z" id="路径-16" fill="#FFFFFF"></path>
                                    </g>
                                    <g id="编组-6" transform="translate(440.182116, 80.500000)">
                                        <path d="M92.7139672,36.9089986 C92.7139672,36.9089986 85.1971138,42.376485 70.1634069,53.3114578 C66.1357571,52.9174472 63.1883865,52.9174472 61.3212953,53.3114578 C57.8116046,54.0521048 58.7500142,46.3219086 51.9013027,48.851056 C42.5119775,52.3184219 30.4312507,57.233312 15.6591225,63.5957265 C13.7981088,59.3175212 11.5137654,54.4026311 8.80609209,48.851056 C4.74458216,40.5236935 -3.15635915,25.9938602 1.34592021,13.8144388 C5.84819956,1.63501733 14.6802576,4.58300065e-13 20.3227731,4.58300065e-13 C25.9652886,4.58300065e-13 59.3985401,13.8144388 92.7139672,36.9089986 Z" id="路径-17" fill="url(#linearGradient-23)" filter="url(#filter-24)"></path>
                                        <path d="M94,38.617739 C94,38.617739 86.3878023,43.8489786 71.1634069,54.3114578 C67.1357571,53.9174472 64.1883865,53.9174472 62.3212953,54.3114578 C58.8116046,55.0521048 59.7500142,47.3219086 52.9013027,49.851056 C43.5119775,53.3184219 31.4312507,58.233312 16.6591225,64.5957265 C14.7981088,60.3175212 12.5137654,55.4026311 9.80609209,49.851056 C5.74458216,41.5236935 -2.15635915,26.9938602 2.34592021,14.8144388 C6.84819956,2.63501733 15.6802576,1 21.3227731,1 C26.9652886,1 60.6845729,15.5231792 94,38.617739 Z" id="路径-17" fill="#FFFFFF"></path>
                                    </g>
                                    <g id="编组-7" transform="translate(484.296159, 128.582037)">
                                        <path d="M68.1281295,29.6510812 L58.319119,35.6632026 L9.22661029,36.8607214 C3.07553676,28.9101654 0,21.7369396 0,15.341044 C0,5.74720055 3.68236311,-9.09494702e-13 10.2266103,-9.09494702e-13 C14.5894417,-9.09494702e-13 33.8899482,9.88369373 68.1281295,29.6510812 Z" id="路径-18" fill="url(#linearGradient-25)" filter="url(#filter-26)"></path>
                                        <path d="M69.1281295,30.6510812 L59.319119,36.6632026 L10.2266103,37.8607214 C4.07553676,29.9101654 1,22.7369396 1,16.341044 C1,6.74720055 4.68236311,1 11.2266103,1 C15.5894417,1 34.8899482,10.8836937 69.1281295,30.6510812 Z" id="路径-18" fill="#FFFFFF"></path>
                                    </g>
                                    <g id="编组-9" transform="translate(570.710422, 92.445450)">
                                        <path d="M7.35874823,48.5722121 C16.1743703,43.6773518 23.2275168,40.9638822 28.5181878,40.4318032 C33.8088588,39.8997242 54.1048108,56.0499417 89.4060439,88.8824556 L89.4060439,36.0137289 C51.9550878,6.49397115 26.1297377,-4.42441184 11.9299937,3.25857996 C-2.26975023,10.9415718 -3.79349873,26.0461158 7.35874823,48.5722121 Z" id="路径-20" fill-opacity="0.06" fill="#002B5E" filter="url(#filter-27)"></path>
                                        <path d="M9.35874823,49.5722121 C18.1743703,44.6773518 25.2275168,41.9638822 30.5181878,41.4318032 C35.8088588,40.8997242 56.1048108,57.0499417 91.4060439,89.8824556 L91.4060439,40.0137289 C53.9550878,8.49397115 28.1297377,-3.42441184 13.9299937,4.25857996 C-0.269750228,11.9415718 -1.79349873,27.0461158 9.35874823,49.5722121 Z" id="路径-20" fill="#FFFFFF"></path>
                                    </g>
                                    <g id="编组-10" transform="translate(589.715816, 133.258182)">
                                        <path d="M3.60909362,96.7717286 L71.4006492,96.7717286 L71.4006492,28.8081197 C37.3314609,4.35846819 16.2504588,-4.52824138 8.1576431,2.14799098 C-3.98158047,12.1623395 -0.460738961,24.7916388 5.18179451,39.1151492 C10.824328,53.4386597 19.7343557,72.2972707 11.6717247,84.5344996 C6.2966373,92.6926522 3.60909362,96.7717286 3.60909362,96.7717286 Z" id="路径-19" fill-opacity="0.06" fill="#002B5E" filter="url(#filter-28)"></path>
                                        <path d="M4.60909362,96.7717286 L72.4006492,96.7717286 L72.4006492,28.8081197 C38.3314609,4.35846819 17.2504588,-4.52824138 9.1576431,2.14799098 C-2.98158047,12.1623395 0.539261039,24.7916388 6.18179451,39.1151492 C11.824328,53.4386597 20.7343557,72.2972707 12.6717247,84.5344996 C7.2966373,92.6926522 4.60909362,96.7717286 4.60909362,96.7717286 Z" id="路径-19" fill="#FFFFFF"></path>
                                    </g>
                                </g>
                            </g>
                        </g>
                    </g>
                </g>
                <g id="飞机" transform="translate(102.263514, 278.320994)">
                    <g id="飞机投影" transform="translate(0.736486, 25.679006)" opacity="0.03">
                        <polygon id="路径-21" fill="#00356F" points="24.4941536 30 2.59348099e-13 0 39.1641217 13.2579998 33.9006073 18.2830668 33.9006073 23.3250719 30.0832224 21.2627541"></polygon>
                        <path d="M44,29.0620835 C109.526432,53.6377556 162.110568,68.6203628 201.752407,74.009905 C261.215166,82.0942184 366.181357,91.4227576 386.932706,68.1701645 C407.684054,44.9175715 368.989632,29.7189777 345.110158,33.9821697 C321.230684,38.2453616 321.659594,46.2168582 321.445139,49.7901148 C321.230684,53.3633714 331.215166,70.0090765 400.084498,70.0090765 C454.506075,70.0090765 511.458575,55.9487431 566.294311,35.0032501" id="路径-8备份" stroke="#00356F" stroke-width="2" stroke-linejoin="bevel" stroke-dasharray="2"></path>
                    </g>
                    <polygon id="路径-23" fill="#FFAEB8" points="33.2451893 22.7972708 38.9922548 25.9370061 35.5993499 20.6790064"></polygon>
                    <polygon id="路径-21" fill="#FF8094" points="24.0527505 33.1543308 6 0 49.948914 10.8408617 39.9006073 18.2830668 38.9922548 25.9370061 36.0832224 21.2627541"></polygon>
                    <polygon id="路径-22" fill="#F36479" points="35.6228413 21.0580823 6.33809824 0.207588799 39.9006073 18.2830668 38.9922548 25.9370061"></polygon>
                    <path d="M44.7364856,28.7410899 C110.262918,53.316762 162.847053,68.2993692 202.488893,73.6889114 C261.951652,81.7732247 366.917843,91.101764 387.669191,67.8491709 C408.42054,44.5965778 369.726118,29.3979841 345.846644,33.661176 C321.96717,37.924368 322.396079,45.8958646 322.181625,49.4691212 C321.96717,53.0423778 331.951652,69.6880829 400.820983,69.6880829 C454.155526,69.6880829 509.920893,56.1838314 563.742377,35.9290752" id="路径-8" stroke="#D2D4D3" stroke-width="2" stroke-linejoin="bevel" stroke-dasharray="2"></path>
                </g>
            </g>
        </g>
    </g>
</svg>