<?xml version="1.0" encoding="UTF-8"?>
<svg width="732px" height="414px" viewBox="0 0 732 414" version="1.1" xmlns="http://www.w3.org/2000/svg" xmlns:xlink="http://www.w3.org/1999/xlink">
    <!-- Generator: Sketch 60.1 (88133) - https://sketch.com -->
    <title>500图</title>
    <desc>Created with Sketch.</desc>
    <defs>
        <linearGradient x1="50%" y1="2.62529019%" x2="50%" y2="34.5117641%" id="linearGradient-1">
            <stop stop-color="#005ABB" stop-opacity="0.04" offset="0%"></stop>
            <stop stop-color="#FFFFFF" stop-opacity="0" offset="100%"></stop>
        </linearGradient>
        <polygon id="path-2" points="0.934251782 42.4739011 132.934252 0.473901099 265.934252 63.4739011 463.934252 10.4739011 578.934252 63.4739011 730.934252 25.4739011 730.934252 413.473901 0.934251782 413.473901"></polygon>
        <rect id="path-4" x="138" y="0" width="123" height="229" rx="60.5"></rect>
        <filter x="-26.0%" y="-12.2%" width="152.0%" height="127.9%" filterUnits="objectBoundingBox" id="filter-5">
            <feMorphology radius="5" operator="dilate" in="SourceAlpha" result="shadowSpreadOuter1"></feMorphology>
            <feOffset dx="0" dy="4" in="shadowSpreadOuter1" result="shadowOffsetOuter1"></feOffset>
            <feGaussianBlur stdDeviation="5" in="shadowOffsetOuter1" result="shadowBlurOuter1"></feGaussianBlur>
            <feColorMatrix values="0 0 0 0 0   0 0 0 0 0.221374716   0 0 0 0 0.479645218  0 0 0 0.05 0" type="matrix" in="shadowBlurOuter1"></feColorMatrix>
        </filter>
        <rect id="path-6" x="285" y="0" width="123" height="229" rx="60.5"></rect>
        <filter x="-26.0%" y="-12.2%" width="152.0%" height="127.9%" filterUnits="objectBoundingBox" id="filter-7">
            <feMorphology radius="5" operator="dilate" in="SourceAlpha" result="shadowSpreadOuter1"></feMorphology>
            <feOffset dx="0" dy="4" in="shadowSpreadOuter1" result="shadowOffsetOuter1"></feOffset>
            <feGaussianBlur stdDeviation="5" in="shadowOffsetOuter1" result="shadowBlurOuter1"></feGaussianBlur>
            <feColorMatrix values="0 0 0 0 0   0 0 0 0 0.221374716   0 0 0 0 0.479645218  0 0 0 0.05 0" type="matrix" in="shadowBlurOuter1"></feColorMatrix>
        </filter>
        <linearGradient x1="50%" y1="2.62529019%" x2="50%" y2="100%" id="linearGradient-8">
            <stop stop-color="#005ABB" stop-opacity="0.07" offset="0%"></stop>
            <stop stop-color="#FFFFFF" stop-opacity="0" offset="100%"></stop>
        </linearGradient>
        <rect id="path-9" x="321" y="35" width="51" height="159" rx="25.5"></rect>
        <filter x="-12.7%" y="-4.1%" width="125.5%" height="108.2%" filterUnits="objectBoundingBox" id="filter-10">
            <feMorphology radius="2" operator="erode" in="SourceAlpha" result="shadowSpreadInner1"></feMorphology>
            <feGaussianBlur stdDeviation="5" in="shadowSpreadInner1" result="shadowBlurInner1"></feGaussianBlur>
            <feOffset dx="0" dy="1" in="shadowBlurInner1" result="shadowOffsetInner1"></feOffset>
            <feComposite in="shadowOffsetInner1" in2="SourceAlpha" operator="arithmetic" k2="-1" k3="1" result="shadowInnerInner1"></feComposite>
            <feColorMatrix values="0 0 0 0 0   0 0 0 0 0.31372549   0 0 0 0 0.678431373  0 0 0 0.15 0" type="matrix" in="shadowInnerInner1"></feColorMatrix>
        </filter>
        <rect id="path-11" x="174" y="35" width="51" height="159" rx="25.5"></rect>
        <filter x="-12.7%" y="-4.1%" width="125.5%" height="108.2%" filterUnits="objectBoundingBox" id="filter-12">
            <feMorphology radius="2" operator="erode" in="SourceAlpha" result="shadowSpreadInner1"></feMorphology>
            <feGaussianBlur stdDeviation="5" in="shadowSpreadInner1" result="shadowBlurInner1"></feGaussianBlur>
            <feOffset dx="0" dy="1" in="shadowBlurInner1" result="shadowOffsetInner1"></feOffset>
            <feComposite in="shadowOffsetInner1" in2="SourceAlpha" operator="arithmetic" k2="-1" k3="1" result="shadowInnerInner1"></feComposite>
            <feColorMatrix values="0 0 0 0 0   0 0 0 0 0.31372549   0 0 0 0 0.678431373  0 0 0 0.15 0" type="matrix" in="shadowInnerInner1"></feColorMatrix>
        </filter>
        <path d="M114,118 L114,171 C114,202.480231 88.4802307,228 57,228 C25.5197693,228 3.85521638e-15,202.480231 0,171 L0,165 L0,165 L37,165 L37,170.498204 C37,181.821033 46.1789666,191 57.5017958,191 C68.8246249,191 78.0035915,181.821033 78.0035915,170.498204 L78.0035915,128.501796 C78.0035915,117.178967 68.8246249,108 57.5017958,108 L56,108 C45.5065898,108 37,116.50659 37,127 L37,127 L37,127 L3,127 L3,3 L107,3 L107,37 L39,37 L39,73 L69,73 C93.8528137,73 114,93.1471863 114,118 Z" id="path-13"></path>
        <filter x="-28.1%" y="-12.4%" width="156.1%" height="128.4%" filterUnits="objectBoundingBox" id="filter-14">
            <feMorphology radius="5" operator="dilate" in="SourceAlpha" result="shadowSpreadOuter1"></feMorphology>
            <feOffset dx="0" dy="4" in="shadowSpreadOuter1" result="shadowOffsetOuter1"></feOffset>
            <feGaussianBlur stdDeviation="5" in="shadowOffsetOuter1" result="shadowBlurOuter1"></feGaussianBlur>
            <feColorMatrix values="0 0 0 0 0   0 0 0 0 0.221374716   0 0 0 0 0.479645218  0 0 0 0.05 0" type="matrix" in="shadowBlurOuter1"></feColorMatrix>
        </filter>
    </defs>
    <g id="页面-1" stroke="none" stroke-width="1" fill="none" fill-rule="evenodd">
        <g id="500" transform="translate(-722.000000, -333.000000)">
            <g id="500图" transform="translate(722.000000, 333.000000)">
                <g id="背景">
                    <mask id="mask-3" fill="white">
                        <use xlink:href="#path-2"></use>
                    </mask>
                    <use id="蒙版" fill="url(#linearGradient-1)" xlink:href="#path-2"></use>
                    <path d="M-5,285.321716 C89.2623393,290.407115 169.791056,306.31614 236.58615,333.048788 C336.778791,373.147761 437.152379,425.472975 548.168452,439.473438 C622.179167,448.80708 698.608685,444.904736 777.457007,427.766406" id="路径-26" stroke="#FFFFFF" stroke-width="4" stroke-dasharray="4" mask="url(#mask-3)"></path>
                    <path d="M-5,408.576418 C114.951639,416.650967 250.163056,408.260991 400.634252,383.406493 C551.105447,358.551994 669.238006,328.84338 755.031928,294.280651" id="路径-27" stroke="#FFFFFF" stroke-width="4" stroke-dasharray="4" mask="url(#mask-3)"></path>
                    <path d="M-5,-15 C47.6995998,51.8286951 113.363542,100.486662 191.991826,130.973901 C309.934252,176.70476 463.223711,220.473901 607.013875,237.473901 C750.80404,254.473901 772.519614,255.848842 790.279927,264.473901 C808.040241,273.098961 792.934252,385.200812 737.934252,390.428637 C682.934252,395.656462 546.334252,398.259478 467.634252,352.913508 C388.934252,307.567537 492.655928,232.473901 555.640069,197.473901 C597.629496,174.140568 666.727557,139.140568 762.934252,92.4739011" id="路径-28" stroke="#FFFFFF" stroke-width="4" stroke-dasharray="4" mask="url(#mask-3)"></path>
                </g>
                <g id="数字" transform="translate(171.934252, 26.473901)">
                    <g id="矩形备份-6">
                        <use fill="black" fill-opacity="1" filter="url(#filter-5)" xlink:href="#path-4"></use>
                        <use fill="#FFFFFF" fill-rule="evenodd" xlink:href="#path-4"></use>
                    </g>
                    <g id="矩形备份-8">
                        <use fill="black" fill-opacity="1" filter="url(#filter-7)" xlink:href="#path-6"></use>
                        <use fill="#FFFFFF" fill-rule="evenodd" xlink:href="#path-6"></use>
                    </g>
                    <g id="矩形备份-9">
                        <use fill="url(#linearGradient-8)" fill-rule="evenodd" xlink:href="#path-9"></use>
                        <use fill="black" fill-opacity="1" filter="url(#filter-10)" xlink:href="#path-9"></use>
                    </g>
                    <g id="矩形备份-7">
                        <use fill="url(#linearGradient-8)" fill-rule="evenodd" xlink:href="#path-11"></use>
                        <use fill="black" fill-opacity="1" filter="url(#filter-12)" xlink:href="#path-11"></use>
                    </g>
                    <g id="路径-24">
                        <use fill="black" fill-opacity="1" filter="url(#filter-14)" xlink:href="#path-13"></use>
                        <use fill="#FFFFFF" fill-rule="evenodd" xlink:href="#path-13"></use>
                    </g>
                </g>
                <g id="断线" transform="translate(0.934252, 99.473901)">
                    <rect id="矩形" fill="#D2D4D3" transform="translate(463.000000, 80.000000) rotate(-30.000000) translate(-463.000000, -80.000000) " x="462" y="70" width="2" height="20"></rect>
                    <rect id="矩形备份" fill="#D2D4D3" x="419" y="70" width="2" height="20"></rect>
                    <rect id="矩形备份-3" fill="#D2D4D3" transform="translate(426.000000, 13.500000) rotate(-355.000000) translate(-426.000000, -13.500000) " x="425" y="1" width="2" height="25"></rect>
                    <rect id="矩形备份-5" fill="#D2D4D3" transform="translate(385.846984, 16.864032) rotate(-398.000000) translate(-385.846984, -16.864032) " x="384.846984" y="7.36403226" width="2" height="19"></rect>
                    <rect id="矩形备份-4" fill="#D2D4D3" transform="translate(471.878680, 22.621320) rotate(-315.000000) translate(-471.878680, -22.621320) " x="470.87868" y="13.1213203" width="2" height="19"></rect>
                    <rect id="矩形备份-2" fill="#D2D4D3" transform="translate(380.000000, 76.000000) rotate(-330.000000) translate(-380.000000, -76.000000) " x="379" y="66" width="2" height="20"></rect>
                    <path d="M366.179499,59.1017087 C366.19883,53.9270381 366.19883,48.2139755 366.179499,41.962521 C244.130326,37.0345702 122.070493,53.1266834 0,90.2388607 C0,99.5008729 0,105.192181 0,107.312786 C144.807348,76.6678243 266.867181,60.5974651 366.179499,59.1017087 Z" id="路径-39" fill="#F7FBFF"></path>
                    <polygon id="路径-40" fill="#FFF4F6" points="379.138071 34.5579811 379.138071 50.1625355 366.193997 59.4896891 366.193997 41.8150042"></polygon>
                    <path d="M376.014552,59.4896891 C406.131025,58.8784927 432.693526,60.794095 455.702055,65.236496 C455.702055,60.4931898 455.702055,53.5884706 455.702055,44.5223386 L382.699568,39.004359 L376.014552,42.3707166 L376.014552,59.4896891 Z" id="路径-42" fill="#FFAEB8"></path>
                    <polygon id="路径-43" fill="#F36479" points="469.310478 39.004359 469.310478 55.5528347 455.702055 65.236496 455.702055 45.6324314"></polygon>
                    <path d="M462.506266,65.236496 C552.87472,70.7779728 642.196561,83.5307731 730.47179,103.494897 C730.47179,98.0068033 730.47179,91.9683456 730.47179,85.3795239 C692.976784,72.4057282 641.336874,61.9816506 575.552059,54.1072911 C509.767244,46.2329316 472.085313,44.1648953 462.506266,47.9031823 L462.506266,65.236496 Z" id="路径-45" fill="#F7FBFF"></path>
                    <path d="M379.138071,34.5579811 C285.173365,31.9422489 159.537191,45.8841179 2.22954836,76.3835879 C1.68733107,81.0448789 0.944148282,85.6633032 1.8189894e-12,90.2388607 C181.296182,54.8103722 303.184077,38.9640762 365.663683,42.6999725 C368.022957,41.104804 372.514419,38.3908069 379.138071,34.5579811 Z" id="路径-38" fill="#E7F0FA"></path>
                    <path d="M376.014552,42.3707166 C379.657163,39.583242 383.030801,36.87569 386.135467,34.2480606 C415.500876,33.3472133 443.22588,34.8999779 469.310478,38.9063542 C461.857013,43.5730503 457.322346,46.2788773 455.706477,47.0238351 C431.132221,43.0719705 404.568246,41.520931 376.014552,42.3707166 Z" id="路径-41" fill="#FF8094"></path>
                    <path d="M463.465546,47.8134109 C467.616857,44.8751432 471.680593,41.9387926 475.656752,39.004359 C584.198575,46.5915492 669.136921,58.3249003 730.47179,74.2044122 C730.412212,79.3233563 730.412212,83.7990685 730.47179,87.6315488 C635.725746,63.9574679 546.723664,50.6847553 463.465546,47.8134109 Z" id="路径-44" fill="#E7F0FA"></path>
                </g>
            </g>
        </g>
    </g>
</svg>